<svg id="visual" viewBox="0 0 900 600" width="900" height="600" xmlns="http://www.w3.org/2000/svg" xmlns:xlink="http://www.w3.org/1999/xlink" version="1.1"><rect x="0" y="0" width="900" height="600" fill="#000000"></rect><defs><linearGradient id="grad1_0" x1="33.3%" y1="0%" x2="100%" y2="100%"><stop offset="20%" stop-color="#ff4d00" stop-opacity="1"></stop><stop offset="80%" stop-color="#ff4d00" stop-opacity="1"></stop></linearGradient></defs><defs><linearGradient id="grad1_1" x1="33.3%" y1="0%" x2="100%" y2="100%"><stop offset="20%" stop-color="#ff4d00" stop-opacity="1"></stop><stop offset="80%" stop-color="#a00000" stop-opacity="1"></stop></linearGradient></defs><defs><linearGradient id="grad1_2" x1="33.3%" y1="0%" x2="100%" y2="100%"><stop offset="20%" stop-color="#000000" stop-opacity="1"></stop><stop offset="80%" stop-color="#a00000" stop-opacity="1"></stop></linearGradient></defs><defs><linearGradient id="grad2_0" x1="0%" y1="0%" x2="66.7%" y2="100%"><stop offset="20%" stop-color="#ff4d00" stop-opacity="1"></stop><stop offset="80%" stop-color="#ff4d00" stop-opacity="1"></stop></linearGradient></defs><defs><linearGradient id="grad2_1" x1="0%" y1="0%" x2="66.7%" y2="100%"><stop offset="20%" stop-color="#a00000" stop-opacity="1"></stop><stop offset="80%" stop-color="#ff4d00" stop-opacity="1"></stop></linearGradient></defs><defs><linearGradient id="grad2_2" x1="0%" y1="0%" x2="66.7%" y2="100%"><stop offset="20%" stop-color="#a00000" stop-opacity="1"></stop><stop offset="80%" stop-color="#000000" stop-opacity="1"></stop></linearGradient></defs><g transform="translate(900, 0)"><path d="M0 405.6C-35.7 379.4 -71.3 353.1 -108.8 334.8C-146.2 316.5 -185.5 306.1 -201.6 277.5C-217.7 248.9 -210.7 201.9 -244.3 177.5C-277.9 153.1 -352.1 151.2 -385.8 125.3C-419.4 99.5 -412.5 49.8 -405.6 0L0 0Z" fill="#740000"></path><path d="M0 270.4C-23.8 252.9 -47.5 235.4 -72.5 223.2C-97.5 211 -123.7 204.1 -134.4 185C-145.2 165.9 -140.5 134.6 -162.9 118.3C-185.3 102.1 -234.7 100.8 -257.2 83.6C-279.6 66.3 -275 33.2 -270.4 0L0 0Z" fill="#ce1900"></path><path d="M0 135.2C-11.9 126.5 -23.8 117.7 -36.3 111.6C-48.7 105.5 -61.8 102 -67.2 92.5C-72.6 83 -70.2 67.3 -81.4 59.2C-92.6 51 -117.4 50.4 -128.6 41.8C-139.8 33.2 -137.5 16.6 -135.2 0L0 0Z" fill="#ff4d00"></path></g><g transform="translate(0, 600)"><path d="M0 -405.6C40.3 -397.8 80.5 -389.9 123.6 -380.4C166.7 -370.9 212.5 -359.7 238.4 -328.2C264.3 -296.6 270.3 -244.8 284 -206.3C297.6 -167.9 318.9 -142.8 340.5 -110.6C362 -78.5 383.8 -39.2 405.6 0L0 0Z" fill="#740000"></path><path d="M0 -270.4C26.8 -265.2 53.7 -260 82.4 -253.6C111.1 -247.3 141.7 -239.8 158.9 -218.8C176.2 -197.8 180.2 -163.2 189.3 -137.5C198.4 -111.9 212.6 -95.2 227 -73.8C241.4 -52.3 255.9 -26.2 270.4 0L0 0Z" fill="#ce1900"></path><path d="M0 -135.2C13.4 -132.6 26.8 -130 41.2 -126.8C55.6 -123.6 70.8 -119.9 79.5 -109.4C88.1 -98.9 90.1 -81.6 94.7 -68.8C99.2 -56 106.3 -47.6 113.5 -36.9C120.7 -26.2 127.9 -13.1 135.2 0L0 0Z" fill="#ff4d00"></path></g></svg>